<mxfile host="app.diagrams.net" modified="2023-05-23T02:26:53.864Z" agent="Mozilla/5.0 (Macintosh; Intel Mac OS X 10.15; rv:109.0) Gecko/20100101 Firefox/113.0" etag="HcbZ3CER08OnylWCBsUE" version="21.3.2" type="github">
  <diagram name="Page-1" id="3AITTEJqZYDQsD5KPdkp">
    <mxGraphModel dx="1434" dy="917" grid="1" gridSize="10" guides="1" tooltips="1" connect="1" arrows="1" fold="1" page="1" pageScale="1" pageWidth="1700" pageHeight="1100" math="0" shadow="0">
      <root>
        <mxCell id="0" />
        <mxCell id="1" parent="0" />
        <mxCell id="rLU7fOl6mltoBrUBpaff-97" value="" style="rounded=1;whiteSpace=wrap;html=1;fillColor=none;dashed=1;" vertex="1" parent="1">
          <mxGeometry x="50" y="600" width="670" height="430" as="geometry" />
        </mxCell>
        <mxCell id="rLU7fOl6mltoBrUBpaff-105" value="" style="rounded=1;whiteSpace=wrap;html=1;fillColor=none;dashed=1;" vertex="1" parent="1">
          <mxGeometry x="860" y="600" width="520" height="430" as="geometry" />
        </mxCell>
        <mxCell id="rLU7fOl6mltoBrUBpaff-7" value="Car" style="swimlane;fontStyle=1;align=center;verticalAlign=top;childLayout=stackLayout;horizontal=1;startSize=26;horizontalStack=0;resizeParent=1;resizeParentMax=0;resizeLast=0;collapsible=1;marginBottom=0;whiteSpace=wrap;html=1;fillColor=#ffe6cc;strokeColor=#d79b00;" vertex="1" parent="1">
          <mxGeometry x="1060" y="300" width="220" height="128" as="geometry">
            <mxRectangle x="1060" y="300" width="60" height="30" as="alternateBounds" />
          </mxGeometry>
        </mxCell>
        <mxCell id="rLU7fOl6mltoBrUBpaff-150" value="&lt;div&gt;+ field: engine&lt;/div&gt;&lt;div&gt;+ field: battery&lt;/div&gt;" style="text;strokeColor=none;fillColor=none;align=left;verticalAlign=top;spacingLeft=4;spacingRight=4;overflow=hidden;rotatable=0;points=[[0,0.5],[1,0.5]];portConstraint=eastwest;whiteSpace=wrap;html=1;" vertex="1" parent="rLU7fOl6mltoBrUBpaff-7">
          <mxGeometry y="26" width="220" height="34" as="geometry" />
        </mxCell>
        <mxCell id="rLU7fOl6mltoBrUBpaff-8" value="&lt;div&gt;+ field: ......&lt;/div&gt;" style="text;strokeColor=none;fillColor=none;align=left;verticalAlign=top;spacingLeft=4;spacingRight=4;overflow=hidden;rotatable=0;points=[[0,0.5],[1,0.5]];portConstraint=eastwest;whiteSpace=wrap;html=1;" vertex="1" parent="rLU7fOl6mltoBrUBpaff-7">
          <mxGeometry y="60" width="220" height="20" as="geometry" />
        </mxCell>
        <mxCell id="rLU7fOl6mltoBrUBpaff-9" value="" style="line;strokeWidth=1;fillColor=none;align=left;verticalAlign=middle;spacingTop=-1;spacingLeft=3;spacingRight=3;rotatable=0;labelPosition=right;points=[];portConstraint=eastwest;strokeColor=inherit;" vertex="1" parent="rLU7fOl6mltoBrUBpaff-7">
          <mxGeometry y="80" width="220" height="8" as="geometry" />
        </mxCell>
        <mxCell id="rLU7fOl6mltoBrUBpaff-10" value="+ method need_service (): bool" style="text;strokeColor=none;fillColor=none;align=left;verticalAlign=top;spacingLeft=4;spacingRight=4;overflow=hidden;rotatable=0;points=[[0,0.5],[1,0.5]];portConstraint=eastwest;whiteSpace=wrap;html=1;" vertex="1" parent="rLU7fOl6mltoBrUBpaff-7">
          <mxGeometry y="88" width="220" height="40" as="geometry" />
        </mxCell>
        <mxCell id="rLU7fOl6mltoBrUBpaff-13" value="EngineCapulet" style="swimlane;fontStyle=1;align=center;verticalAlign=top;childLayout=stackLayout;horizontal=1;startSize=26;horizontalStack=0;resizeParent=1;resizeParentMax=0;resizeLast=0;collapsible=1;marginBottom=0;whiteSpace=wrap;html=1;fillColor=#d5e8d4;strokeColor=#82b366;" vertex="1" parent="1">
          <mxGeometry x="65" y="810" width="200" height="104" as="geometry" />
        </mxCell>
        <mxCell id="rLU7fOl6mltoBrUBpaff-14" value="&lt;div&gt;+ field: current_mileage: int&lt;br&gt;&lt;/div&gt;&lt;div&gt;+ field: last_service_mileage:int&lt;/div&gt;" style="text;strokeColor=none;fillColor=none;align=left;verticalAlign=top;spacingLeft=4;spacingRight=4;overflow=hidden;rotatable=0;points=[[0,0.5],[1,0.5]];portConstraint=eastwest;whiteSpace=wrap;html=1;" vertex="1" parent="rLU7fOl6mltoBrUBpaff-13">
          <mxGeometry y="26" width="200" height="44" as="geometry" />
        </mxCell>
        <mxCell id="rLU7fOl6mltoBrUBpaff-15" value="" style="line;strokeWidth=1;fillColor=none;align=left;verticalAlign=middle;spacingTop=-1;spacingLeft=3;spacingRight=3;rotatable=0;labelPosition=right;points=[];portConstraint=eastwest;strokeColor=inherit;" vertex="1" parent="rLU7fOl6mltoBrUBpaff-13">
          <mxGeometry y="70" width="200" height="8" as="geometry" />
        </mxCell>
        <mxCell id="rLU7fOl6mltoBrUBpaff-16" value="+ method need_service(): bool" style="text;strokeColor=none;fillColor=none;align=left;verticalAlign=top;spacingLeft=4;spacingRight=4;overflow=hidden;rotatable=0;points=[[0,0.5],[1,0.5]];portConstraint=eastwest;whiteSpace=wrap;html=1;" vertex="1" parent="rLU7fOl6mltoBrUBpaff-13">
          <mxGeometry y="78" width="200" height="26" as="geometry" />
        </mxCell>
        <mxCell id="rLU7fOl6mltoBrUBpaff-22" value="EngineSternman" style="swimlane;fontStyle=1;align=center;verticalAlign=top;childLayout=stackLayout;horizontal=1;startSize=26;horizontalStack=0;resizeParent=1;resizeParentMax=0;resizeLast=0;collapsible=1;marginBottom=0;whiteSpace=wrap;html=1;fillColor=#d5e8d4;strokeColor=#82b366;" vertex="1" parent="1">
          <mxGeometry x="505" y="810" width="200" height="94" as="geometry" />
        </mxCell>
        <mxCell id="rLU7fOl6mltoBrUBpaff-23" value="&lt;div&gt;+ field: warning_light: bool&lt;br&gt;&lt;/div&gt;" style="text;strokeColor=none;fillColor=none;align=left;verticalAlign=top;spacingLeft=4;spacingRight=4;overflow=hidden;rotatable=0;points=[[0,0.5],[1,0.5]];portConstraint=eastwest;whiteSpace=wrap;html=1;" vertex="1" parent="rLU7fOl6mltoBrUBpaff-22">
          <mxGeometry y="26" width="200" height="34" as="geometry" />
        </mxCell>
        <mxCell id="rLU7fOl6mltoBrUBpaff-24" value="" style="line;strokeWidth=1;fillColor=none;align=left;verticalAlign=middle;spacingTop=-1;spacingLeft=3;spacingRight=3;rotatable=0;labelPosition=right;points=[];portConstraint=eastwest;strokeColor=inherit;" vertex="1" parent="rLU7fOl6mltoBrUBpaff-22">
          <mxGeometry y="60" width="200" height="8" as="geometry" />
        </mxCell>
        <mxCell id="rLU7fOl6mltoBrUBpaff-25" value="+ method need_service(): bool" style="text;strokeColor=none;fillColor=none;align=left;verticalAlign=top;spacingLeft=4;spacingRight=4;overflow=hidden;rotatable=0;points=[[0,0.5],[1,0.5]];portConstraint=eastwest;whiteSpace=wrap;html=1;" vertex="1" parent="rLU7fOl6mltoBrUBpaff-22">
          <mxGeometry y="68" width="200" height="26" as="geometry" />
        </mxCell>
        <mxCell id="rLU7fOl6mltoBrUBpaff-26" value="EngineWilloughby" style="swimlane;fontStyle=1;align=center;verticalAlign=top;childLayout=stackLayout;horizontal=1;startSize=26;horizontalStack=0;resizeParent=1;resizeParentMax=0;resizeLast=0;collapsible=1;marginBottom=0;whiteSpace=wrap;html=1;fillColor=#d5e8d4;strokeColor=#82b366;" vertex="1" parent="1">
          <mxGeometry x="285" y="810" width="200" height="104" as="geometry" />
        </mxCell>
        <mxCell id="rLU7fOl6mltoBrUBpaff-27" value="&lt;div&gt;+ field: current_mileage: int&lt;br&gt;&lt;/div&gt;&lt;div&gt;+ field: last_service_mileage: int&lt;br&gt;&lt;/div&gt;" style="text;strokeColor=none;fillColor=none;align=left;verticalAlign=top;spacingLeft=4;spacingRight=4;overflow=hidden;rotatable=0;points=[[0,0.5],[1,0.5]];portConstraint=eastwest;whiteSpace=wrap;html=1;" vertex="1" parent="rLU7fOl6mltoBrUBpaff-26">
          <mxGeometry y="26" width="200" height="44" as="geometry" />
        </mxCell>
        <mxCell id="rLU7fOl6mltoBrUBpaff-28" value="" style="line;strokeWidth=1;fillColor=none;align=left;verticalAlign=middle;spacingTop=-1;spacingLeft=3;spacingRight=3;rotatable=0;labelPosition=right;points=[];portConstraint=eastwest;strokeColor=inherit;" vertex="1" parent="rLU7fOl6mltoBrUBpaff-26">
          <mxGeometry y="70" width="200" height="8" as="geometry" />
        </mxCell>
        <mxCell id="rLU7fOl6mltoBrUBpaff-29" value="+ method need_service(): bool" style="text;strokeColor=none;fillColor=none;align=left;verticalAlign=top;spacingLeft=4;spacingRight=4;overflow=hidden;rotatable=0;points=[[0,0.5],[1,0.5]];portConstraint=eastwest;whiteSpace=wrap;html=1;" vertex="1" parent="rLU7fOl6mltoBrUBpaff-26">
          <mxGeometry y="78" width="200" height="26" as="geometry" />
        </mxCell>
        <mxCell id="rLU7fOl6mltoBrUBpaff-103" value="" style="endArrow=block;dashed=1;endFill=0;endSize=12;html=1;rounded=0;exitX=0.5;exitY=0;exitDx=0;exitDy=0;edgeStyle=orthogonalEdgeStyle;" edge="1" parent="1" source="rLU7fOl6mltoBrUBpaff-31" target="rLU7fOl6mltoBrUBpaff-99">
          <mxGeometry relative="1" as="geometry" />
        </mxCell>
        <mxCell id="rLU7fOl6mltoBrUBpaff-31" value="BatterySpindler" style="swimlane;fontStyle=1;align=center;verticalAlign=top;childLayout=stackLayout;horizontal=1;startSize=26;horizontalStack=0;resizeParent=1;resizeParentMax=0;resizeLast=0;collapsible=1;marginBottom=0;whiteSpace=wrap;html=1;fillColor=#dae8fc;strokeColor=#6c8ebf;" vertex="1" parent="1">
          <mxGeometry x="900" y="810" width="200" height="100" as="geometry" />
        </mxCell>
        <mxCell id="rLU7fOl6mltoBrUBpaff-122" value="+ field: last_service_date: date" style="text;strokeColor=none;fillColor=none;align=left;verticalAlign=top;spacingLeft=4;spacingRight=4;overflow=hidden;rotatable=0;points=[[0,0.5],[1,0.5]];portConstraint=eastwest;whiteSpace=wrap;html=1;" vertex="1" parent="rLU7fOl6mltoBrUBpaff-31">
          <mxGeometry y="26" width="200" height="20" as="geometry" />
        </mxCell>
        <mxCell id="rLU7fOl6mltoBrUBpaff-32" value="+ field: current_date: date" style="text;strokeColor=none;fillColor=none;align=left;verticalAlign=top;spacingLeft=4;spacingRight=4;overflow=hidden;rotatable=0;points=[[0,0.5],[1,0.5]];portConstraint=eastwest;whiteSpace=wrap;html=1;" vertex="1" parent="rLU7fOl6mltoBrUBpaff-31">
          <mxGeometry y="46" width="200" height="20" as="geometry" />
        </mxCell>
        <mxCell id="rLU7fOl6mltoBrUBpaff-33" value="" style="line;strokeWidth=1;fillColor=none;align=left;verticalAlign=middle;spacingTop=-1;spacingLeft=3;spacingRight=3;rotatable=0;labelPosition=right;points=[];portConstraint=eastwest;strokeColor=inherit;" vertex="1" parent="rLU7fOl6mltoBrUBpaff-31">
          <mxGeometry y="66" width="200" height="8" as="geometry" />
        </mxCell>
        <mxCell id="rLU7fOl6mltoBrUBpaff-34" value="+ method need_service(): bool" style="text;strokeColor=none;fillColor=none;align=left;verticalAlign=top;spacingLeft=4;spacingRight=4;overflow=hidden;rotatable=0;points=[[0,0.5],[1,0.5]];portConstraint=eastwest;whiteSpace=wrap;html=1;" vertex="1" parent="rLU7fOl6mltoBrUBpaff-31">
          <mxGeometry y="74" width="200" height="26" as="geometry" />
        </mxCell>
        <mxCell id="rLU7fOl6mltoBrUBpaff-35" value="BatteryNubbin" style="swimlane;fontStyle=1;align=center;verticalAlign=top;childLayout=stackLayout;horizontal=1;startSize=26;horizontalStack=0;resizeParent=1;resizeParentMax=0;resizeLast=0;collapsible=1;marginBottom=0;whiteSpace=wrap;html=1;fillColor=#dae8fc;strokeColor=#6c8ebf;" vertex="1" parent="1">
          <mxGeometry x="1140" y="810" width="200" height="108" as="geometry" />
        </mxCell>
        <mxCell id="rLU7fOl6mltoBrUBpaff-123" value="+ field: last_service_date:date" style="text;strokeColor=none;fillColor=none;align=left;verticalAlign=top;spacingLeft=4;spacingRight=4;overflow=hidden;rotatable=0;points=[[0,0.5],[1,0.5]];portConstraint=eastwest;whiteSpace=wrap;html=1;" vertex="1" parent="rLU7fOl6mltoBrUBpaff-35">
          <mxGeometry y="26" width="200" height="24" as="geometry" />
        </mxCell>
        <mxCell id="rLU7fOl6mltoBrUBpaff-36" value="+ field: current_date:date" style="text;strokeColor=none;fillColor=none;align=left;verticalAlign=top;spacingLeft=4;spacingRight=4;overflow=hidden;rotatable=0;points=[[0,0.5],[1,0.5]];portConstraint=eastwest;whiteSpace=wrap;html=1;" vertex="1" parent="rLU7fOl6mltoBrUBpaff-35">
          <mxGeometry y="50" width="200" height="24" as="geometry" />
        </mxCell>
        <mxCell id="rLU7fOl6mltoBrUBpaff-37" value="" style="line;strokeWidth=1;fillColor=none;align=left;verticalAlign=middle;spacingTop=-1;spacingLeft=3;spacingRight=3;rotatable=0;labelPosition=right;points=[];portConstraint=eastwest;strokeColor=inherit;" vertex="1" parent="rLU7fOl6mltoBrUBpaff-35">
          <mxGeometry y="74" width="200" height="8" as="geometry" />
        </mxCell>
        <mxCell id="rLU7fOl6mltoBrUBpaff-38" value="+ method need_service(): bool" style="text;strokeColor=none;fillColor=none;align=left;verticalAlign=top;spacingLeft=4;spacingRight=4;overflow=hidden;rotatable=0;points=[[0,0.5],[1,0.5]];portConstraint=eastwest;whiteSpace=wrap;html=1;" vertex="1" parent="rLU7fOl6mltoBrUBpaff-35">
          <mxGeometry y="82" width="200" height="26" as="geometry" />
        </mxCell>
        <mxCell id="rLU7fOl6mltoBrUBpaff-88" value="Engine" style="swimlane;fontStyle=1;align=center;verticalAlign=top;childLayout=stackLayout;horizontal=1;startSize=26;horizontalStack=0;resizeParent=1;resizeParentMax=0;resizeLast=0;collapsible=1;marginBottom=0;whiteSpace=wrap;html=1;fillColor=#d5e8d4;strokeColor=#82b366;" vertex="1" parent="1">
          <mxGeometry x="285" y="620" width="200" height="60" as="geometry" />
        </mxCell>
        <mxCell id="rLU7fOl6mltoBrUBpaff-90" value="" style="line;strokeWidth=1;fillColor=none;align=left;verticalAlign=middle;spacingTop=-1;spacingLeft=3;spacingRight=3;rotatable=0;labelPosition=right;points=[];portConstraint=eastwest;strokeColor=inherit;" vertex="1" parent="rLU7fOl6mltoBrUBpaff-88">
          <mxGeometry y="26" width="200" height="8" as="geometry" />
        </mxCell>
        <mxCell id="rLU7fOl6mltoBrUBpaff-91" value="+ method need_service(): bool" style="text;strokeColor=none;fillColor=none;align=left;verticalAlign=top;spacingLeft=4;spacingRight=4;overflow=hidden;rotatable=0;points=[[0,0.5],[1,0.5]];portConstraint=eastwest;whiteSpace=wrap;html=1;" vertex="1" parent="rLU7fOl6mltoBrUBpaff-88">
          <mxGeometry y="34" width="200" height="26" as="geometry" />
        </mxCell>
        <mxCell id="rLU7fOl6mltoBrUBpaff-93" value="" style="endArrow=block;dashed=1;endFill=0;endSize=12;html=1;rounded=0;exitX=0.5;exitY=0;exitDx=0;exitDy=0;" edge="1" parent="1" source="rLU7fOl6mltoBrUBpaff-13" target="rLU7fOl6mltoBrUBpaff-91">
          <mxGeometry width="160" relative="1" as="geometry">
            <mxPoint x="775" y="470" as="sourcePoint" />
            <mxPoint x="935" y="470" as="targetPoint" />
            <Array as="points">
              <mxPoint x="165" y="740" />
              <mxPoint x="385" y="740" />
            </Array>
          </mxGeometry>
        </mxCell>
        <mxCell id="rLU7fOl6mltoBrUBpaff-94" value="" style="endArrow=block;dashed=1;endFill=0;endSize=12;html=1;rounded=0;exitX=0.5;exitY=0;exitDx=0;exitDy=0;" edge="1" parent="1" source="rLU7fOl6mltoBrUBpaff-26">
          <mxGeometry width="160" relative="1" as="geometry">
            <mxPoint x="775" y="470" as="sourcePoint" />
            <mxPoint x="385" y="680" as="targetPoint" />
          </mxGeometry>
        </mxCell>
        <mxCell id="rLU7fOl6mltoBrUBpaff-95" value="" style="endArrow=block;dashed=1;endFill=0;endSize=12;html=1;rounded=0;exitX=0.5;exitY=0;exitDx=0;exitDy=0;" edge="1" parent="1" source="rLU7fOl6mltoBrUBpaff-22" target="rLU7fOl6mltoBrUBpaff-91">
          <mxGeometry width="160" relative="1" as="geometry">
            <mxPoint x="775" y="470" as="sourcePoint" />
            <mxPoint x="935" y="470" as="targetPoint" />
            <Array as="points">
              <mxPoint x="605" y="740" />
              <mxPoint x="385" y="740" />
            </Array>
          </mxGeometry>
        </mxCell>
        <mxCell id="rLU7fOl6mltoBrUBpaff-96" value="Implementation" style="text;strokeColor=none;align=center;fillColor=none;html=1;verticalAlign=middle;whiteSpace=wrap;rounded=0;" vertex="1" parent="1">
          <mxGeometry x="405" y="710" width="60" height="30" as="geometry" />
        </mxCell>
        <mxCell id="rLU7fOl6mltoBrUBpaff-99" value="Battery" style="swimlane;fontStyle=1;align=center;verticalAlign=top;childLayout=stackLayout;horizontal=1;startSize=26;horizontalStack=0;resizeParent=1;resizeParentMax=0;resizeLast=0;collapsible=1;marginBottom=0;whiteSpace=wrap;html=1;fillColor=#dae8fc;strokeColor=#6c8ebf;" vertex="1" parent="1">
          <mxGeometry x="1020" y="620" width="200" height="60" as="geometry" />
        </mxCell>
        <mxCell id="rLU7fOl6mltoBrUBpaff-101" value="" style="line;strokeWidth=1;fillColor=none;align=left;verticalAlign=middle;spacingTop=-1;spacingLeft=3;spacingRight=3;rotatable=0;labelPosition=right;points=[];portConstraint=eastwest;strokeColor=inherit;" vertex="1" parent="rLU7fOl6mltoBrUBpaff-99">
          <mxGeometry y="26" width="200" height="8" as="geometry" />
        </mxCell>
        <mxCell id="rLU7fOl6mltoBrUBpaff-102" value="+ method need_service(): bool" style="text;strokeColor=none;fillColor=none;align=left;verticalAlign=top;spacingLeft=4;spacingRight=4;overflow=hidden;rotatable=0;points=[[0,0.5],[1,0.5]];portConstraint=eastwest;whiteSpace=wrap;html=1;" vertex="1" parent="rLU7fOl6mltoBrUBpaff-99">
          <mxGeometry y="34" width="200" height="26" as="geometry" />
        </mxCell>
        <mxCell id="rLU7fOl6mltoBrUBpaff-104" value="" style="endArrow=block;dashed=1;endFill=0;endSize=12;html=1;rounded=0;exitX=0.5;exitY=0;exitDx=0;exitDy=0;edgeStyle=orthogonalEdgeStyle;" edge="1" parent="1" source="rLU7fOl6mltoBrUBpaff-35" target="rLU7fOl6mltoBrUBpaff-99">
          <mxGeometry relative="1" as="geometry">
            <mxPoint x="1010" y="794" as="sourcePoint" />
            <mxPoint x="1150" y="714" as="targetPoint" />
          </mxGeometry>
        </mxCell>
        <mxCell id="rLU7fOl6mltoBrUBpaff-106" value="Implementation" style="text;strokeColor=none;align=center;fillColor=none;html=1;verticalAlign=middle;whiteSpace=wrap;rounded=0;" vertex="1" parent="1">
          <mxGeometry x="1150" y="700" width="60" height="30" as="geometry" />
        </mxCell>
        <mxCell id="rLU7fOl6mltoBrUBpaff-115" value="&lt;b&gt;CarFactory&lt;/b&gt;" style="swimlane;fontStyle=0;childLayout=stackLayout;horizontal=1;startSize=26;fillColor=#f8cecc;horizontalStack=0;resizeParent=1;resizeParentMax=0;resizeLast=0;collapsible=1;marginBottom=0;whiteSpace=wrap;html=1;strokeColor=#b85450;" vertex="1" parent="1">
          <mxGeometry x="180" y="300" width="690" height="182" as="geometry" />
        </mxCell>
        <mxCell id="rLU7fOl6mltoBrUBpaff-116" value="&lt;div&gt;+ method: create_Calliope (current_date:date, last_service_date:date, current_mileage:int, lasr_service_mileage:int): Car&lt;br&gt;&lt;/div&gt;" style="text;strokeColor=none;fillColor=none;align=left;verticalAlign=top;spacingLeft=4;spacingRight=4;overflow=hidden;rotatable=0;points=[[0,0.5],[1,0.5]];portConstraint=eastwest;whiteSpace=wrap;html=1;fontColor=#EA6B66;fontStyle=0" vertex="1" parent="rLU7fOl6mltoBrUBpaff-115">
          <mxGeometry y="26" width="690" height="26" as="geometry" />
        </mxCell>
        <mxCell id="rLU7fOl6mltoBrUBpaff-117" value="&lt;div&gt;+ method: create_Thovex (current_date:date, last_service_date:date, current_mileage:int, lasr_service_mileage:int): Car&lt;br&gt;&lt;/div&gt;" style="text;strokeColor=none;fillColor=none;align=left;verticalAlign=top;spacingLeft=4;spacingRight=4;overflow=hidden;rotatable=0;points=[[0,0.5],[1,0.5]];portConstraint=eastwest;whiteSpace=wrap;html=1;" vertex="1" parent="rLU7fOl6mltoBrUBpaff-115">
          <mxGeometry y="52" width="690" height="26" as="geometry" />
        </mxCell>
        <mxCell id="rLU7fOl6mltoBrUBpaff-118" value="&lt;div&gt;+ method: create_Rorschach (current_date:date, last_service_date:date, current_mileage:int, lasr_service_mileage:int): Car&lt;br&gt;&lt;/div&gt;" style="text;strokeColor=none;fillColor=none;align=left;verticalAlign=top;spacingLeft=4;spacingRight=4;overflow=hidden;rotatable=0;points=[[0,0.5],[1,0.5]];portConstraint=eastwest;whiteSpace=wrap;html=1;" vertex="1" parent="rLU7fOl6mltoBrUBpaff-115">
          <mxGeometry y="78" width="690" height="26" as="geometry" />
        </mxCell>
        <mxCell id="rLU7fOl6mltoBrUBpaff-119" value="&lt;div&gt;+ method: create_Glissade (current_date:date, last_service_date:date, current_mileage:int, lasr_service_mileage:int): Car&lt;br&gt;&lt;/div&gt;" style="text;strokeColor=none;fillColor=none;align=left;verticalAlign=top;spacingLeft=4;spacingRight=4;overflow=hidden;rotatable=0;points=[[0,0.5],[1,0.5]];portConstraint=eastwest;whiteSpace=wrap;html=1;" vertex="1" parent="rLU7fOl6mltoBrUBpaff-115">
          <mxGeometry y="104" width="690" height="26" as="geometry" />
        </mxCell>
        <mxCell id="rLU7fOl6mltoBrUBpaff-121" value="&lt;div&gt;+ method: create_Palindrome (current_date:date, last_service_date:date, warning_light:bool): Car&lt;br&gt;&lt;/div&gt;" style="text;strokeColor=none;fillColor=none;align=left;verticalAlign=top;spacingLeft=4;spacingRight=4;overflow=hidden;rotatable=0;points=[[0,0.5],[1,0.5]];portConstraint=eastwest;whiteSpace=wrap;html=1;" vertex="1" parent="rLU7fOl6mltoBrUBpaff-115">
          <mxGeometry y="130" width="690" height="26" as="geometry" />
        </mxCell>
        <mxCell id="rLU7fOl6mltoBrUBpaff-153" value="&lt;div&gt;+ method: create_xxx (...): Car&lt;br&gt;&lt;/div&gt;" style="text;strokeColor=none;fillColor=none;align=left;verticalAlign=top;spacingLeft=4;spacingRight=4;overflow=hidden;rotatable=0;points=[[0,0.5],[1,0.5]];portConstraint=eastwest;whiteSpace=wrap;html=1;fontColor=#7EA6E0;" vertex="1" parent="rLU7fOl6mltoBrUBpaff-115">
          <mxGeometry y="156" width="690" height="26" as="geometry" />
        </mxCell>
        <mxCell id="rLU7fOl6mltoBrUBpaff-124" value="" style="endArrow=open;endFill=1;endSize=12;html=1;rounded=0;exitX=1;exitY=0.5;exitDx=0;exitDy=0;entryX=0;entryY=0.176;entryDx=0;entryDy=0;entryPerimeter=0;" edge="1" parent="1" source="rLU7fOl6mltoBrUBpaff-117" target="rLU7fOl6mltoBrUBpaff-8">
          <mxGeometry width="160" relative="1" as="geometry">
            <mxPoint x="830" y="277.5" as="sourcePoint" />
            <mxPoint x="900" y="310" as="targetPoint" />
          </mxGeometry>
        </mxCell>
        <mxCell id="rLU7fOl6mltoBrUBpaff-125" value="Association" style="text;strokeColor=none;align=center;fillColor=none;html=1;verticalAlign=middle;whiteSpace=wrap;rounded=0;" vertex="1" parent="1">
          <mxGeometry x="940" y="330" width="60" height="30" as="geometry" />
        </mxCell>
        <mxCell id="rLU7fOl6mltoBrUBpaff-129" value="" style="endArrow=open;endFill=1;endSize=12;html=1;rounded=0;entryX=0.104;entryY=-0.006;entryDx=0;entryDy=0;entryPerimeter=0;edgeStyle=orthogonalEdgeStyle;" edge="1" parent="1" target="rLU7fOl6mltoBrUBpaff-97">
          <mxGeometry width="160" relative="1" as="geometry">
            <mxPoint x="180" y="370" as="sourcePoint" />
            <mxPoint x="30" y="380" as="targetPoint" />
            <Array as="points">
              <mxPoint x="180" y="370" />
              <mxPoint x="120" y="370" />
            </Array>
          </mxGeometry>
        </mxCell>
        <mxCell id="rLU7fOl6mltoBrUBpaff-130" value="Association" style="text;strokeColor=none;align=center;fillColor=none;html=1;verticalAlign=middle;whiteSpace=wrap;rounded=0;" vertex="1" parent="1">
          <mxGeometry x="50" y="430" width="60" height="30" as="geometry" />
        </mxCell>
        <mxCell id="rLU7fOl6mltoBrUBpaff-131" value="" style="endArrow=open;endFill=1;endSize=12;html=1;rounded=0;exitX=1;exitY=0.5;exitDx=0;exitDy=0;edgeStyle=orthogonalEdgeStyle;" edge="1" parent="1" source="rLU7fOl6mltoBrUBpaff-115">
          <mxGeometry width="160" relative="1" as="geometry">
            <mxPoint x="640" y="570" as="sourcePoint" />
            <mxPoint x="960" y="600" as="targetPoint" />
            <Array as="points">
              <mxPoint x="870" y="400" />
              <mxPoint x="961" y="400" />
            </Array>
          </mxGeometry>
        </mxCell>
        <mxCell id="rLU7fOl6mltoBrUBpaff-132" value="Association" style="text;strokeColor=none;align=center;fillColor=none;html=1;verticalAlign=middle;whiteSpace=wrap;rounded=0;" vertex="1" parent="1">
          <mxGeometry x="890" y="400" width="60" height="30" as="geometry" />
        </mxCell>
        <mxCell id="rLU7fOl6mltoBrUBpaff-133" value="Serviceable" style="swimlane;fontStyle=0;childLayout=stackLayout;horizontal=1;startSize=26;fillColor=none;horizontalStack=0;resizeParent=1;resizeParentMax=0;resizeLast=0;collapsible=1;marginBottom=0;whiteSpace=wrap;html=1;" vertex="1" parent="1">
          <mxGeometry x="1080" y="120" width="180" height="52" as="geometry" />
        </mxCell>
        <mxCell id="rLU7fOl6mltoBrUBpaff-134" value="+ method: need_service(): bool" style="text;strokeColor=none;fillColor=none;align=left;verticalAlign=top;spacingLeft=4;spacingRight=4;overflow=hidden;rotatable=0;points=[[0,0.5],[1,0.5]];portConstraint=eastwest;whiteSpace=wrap;html=1;" vertex="1" parent="rLU7fOl6mltoBrUBpaff-133">
          <mxGeometry y="26" width="180" height="26" as="geometry" />
        </mxCell>
        <mxCell id="rLU7fOl6mltoBrUBpaff-138" value="" style="endArrow=diamondThin;endFill=1;endSize=24;html=1;rounded=0;edgeStyle=orthogonalEdgeStyle;exitX=0.5;exitY=0;exitDx=0;exitDy=0;" edge="1" parent="1" source="rLU7fOl6mltoBrUBpaff-88" target="rLU7fOl6mltoBrUBpaff-7">
          <mxGeometry width="160" relative="1" as="geometry">
            <mxPoint x="640" y="550" as="sourcePoint" />
            <mxPoint x="800" y="550" as="targetPoint" />
          </mxGeometry>
        </mxCell>
        <mxCell id="rLU7fOl6mltoBrUBpaff-139" value="" style="endArrow=diamondThin;endFill=1;endSize=24;html=1;rounded=0;edgeStyle=orthogonalEdgeStyle;" edge="1" parent="1" source="rLU7fOl6mltoBrUBpaff-99" target="rLU7fOl6mltoBrUBpaff-7">
          <mxGeometry width="160" relative="1" as="geometry">
            <mxPoint x="770" y="550" as="sourcePoint" />
            <mxPoint x="930" y="550" as="targetPoint" />
          </mxGeometry>
        </mxCell>
        <mxCell id="rLU7fOl6mltoBrUBpaff-140" value="Composition" style="text;strokeColor=none;align=center;fillColor=none;html=1;verticalAlign=middle;whiteSpace=wrap;rounded=0;" vertex="1" parent="1">
          <mxGeometry x="1070" y="480" width="60" height="30" as="geometry" />
        </mxCell>
        <mxCell id="rLU7fOl6mltoBrUBpaff-141" value="" style="endArrow=block;dashed=1;endFill=0;endSize=12;html=1;rounded=0;exitX=0.5;exitY=0;exitDx=0;exitDy=0;" edge="1" parent="1" source="rLU7fOl6mltoBrUBpaff-7" target="rLU7fOl6mltoBrUBpaff-133">
          <mxGeometry width="160" relative="1" as="geometry">
            <mxPoint x="770" y="470" as="sourcePoint" />
            <mxPoint x="930" y="470" as="targetPoint" />
          </mxGeometry>
        </mxCell>
        <mxCell id="rLU7fOl6mltoBrUBpaff-142" value="&lt;p style=&quot;margin:0px;margin-top:4px;text-align:center;text-decoration:underline;&quot;&gt;&lt;b&gt;Object:Car&lt;/b&gt;&lt;/p&gt;&lt;hr&gt;&lt;p style=&quot;margin:0px;margin-left:8px;&quot;&gt;current_date: date&lt;/p&gt;&lt;p style=&quot;margin:0px;margin-left:8px;&quot;&gt;last_service_date: date&lt;/p&gt;&lt;p style=&quot;margin:0px;margin-left:8px;&quot;&gt;current_mileage: int&lt;/p&gt;&lt;p style=&quot;margin:0px;margin-left:8px;&quot;&gt;last_service mileage: int&lt;br&gt;&lt;/p&gt;" style="verticalAlign=top;align=left;overflow=fill;fontSize=12;fontFamily=Helvetica;html=1;whiteSpace=wrap;fillColor=#f5f5f5;fontColor=#333333;strokeColor=#666666;" vertex="1" parent="1">
          <mxGeometry x="180" y="150" width="160" height="90" as="geometry" />
        </mxCell>
        <mxCell id="rLU7fOl6mltoBrUBpaff-143" value="&lt;div&gt;Example&lt;/div&gt;&lt;div&gt;Creating a car object&lt;br&gt;&lt;/div&gt;" style="text;strokeColor=default;align=center;fillColor=none;html=1;verticalAlign=middle;whiteSpace=wrap;rounded=1;dashed=1;" vertex="1" parent="1">
          <mxGeometry x="180" y="80" width="130" height="50" as="geometry" />
        </mxCell>
        <mxCell id="rLU7fOl6mltoBrUBpaff-144" value="return" style="html=1;verticalAlign=bottom;endArrow=open;dashed=1;endSize=8;edgeStyle=elbowEdgeStyle;elbow=vertical;curved=0;rounded=0;entryX=0.5;entryY=1;entryDx=0;entryDy=0;exitX=0.236;exitY=0.006;exitDx=0;exitDy=0;exitPerimeter=0;" edge="1" parent="1" source="rLU7fOl6mltoBrUBpaff-115" target="rLU7fOl6mltoBrUBpaff-142">
          <mxGeometry relative="1" as="geometry">
            <mxPoint x="345" y="280" as="sourcePoint" />
            <mxPoint x="265" y="280" as="targetPoint" />
            <Array as="points">
              <mxPoint x="270" y="280" />
              <mxPoint x="260" y="270" />
            </Array>
          </mxGeometry>
        </mxCell>
        <mxCell id="rLU7fOl6mltoBrUBpaff-145" value="«cars are accessed through interface»&lt;br&gt;&lt;b&gt;Serviceable&lt;/b&gt;" style="html=1;whiteSpace=wrap;rounded=1;dashed=1;" vertex="1" parent="1">
          <mxGeometry x="1230" y="40" width="190" height="50" as="geometry" />
        </mxCell>
        <mxCell id="rLU7fOl6mltoBrUBpaff-148" value="change car attributes by accessing CarFactory&#39;s corresponding method" style="rounded=1;whiteSpace=wrap;html=1;dashed=1;" vertex="1" parent="1">
          <mxGeometry x="690" y="210" width="180" height="60" as="geometry" />
        </mxCell>
        <mxCell id="rLU7fOl6mltoBrUBpaff-149" value="add parts independently as needed" style="rounded=1;whiteSpace=wrap;html=1;dashed=1;strokeColor=#CCCCCC;strokeWidth=2;" vertex="1" parent="1">
          <mxGeometry x="1440" y="600" width="200" height="120" as="geometry" />
        </mxCell>
        <mxCell id="rLU7fOl6mltoBrUBpaff-151" value="" style="endArrow=diamondThin;endFill=1;endSize=24;html=1;rounded=0;strokeColor=#CCCCCC;edgeStyle=orthogonalEdgeStyle;exitX=0.5;exitY=0;exitDx=0;exitDy=0;entryX=1;entryY=0.1;entryDx=0;entryDy=0;entryPerimeter=0;" edge="1" parent="1" source="rLU7fOl6mltoBrUBpaff-149" target="rLU7fOl6mltoBrUBpaff-8">
          <mxGeometry width="160" relative="1" as="geometry">
            <mxPoint x="1400" y="460" as="sourcePoint" />
            <mxPoint x="1250" y="430" as="targetPoint" />
          </mxGeometry>
        </mxCell>
        <mxCell id="rLU7fOl6mltoBrUBpaff-152" value="" style="endArrow=open;endFill=1;endSize=12;html=1;rounded=0;strokeColor=#CCCCCC;edgeStyle=orthogonalEdgeStyle;entryX=0.365;entryY=-0.008;entryDx=0;entryDy=0;entryPerimeter=0;" edge="1" parent="1" source="rLU7fOl6mltoBrUBpaff-115" target="rLU7fOl6mltoBrUBpaff-149">
          <mxGeometry width="160" relative="1" as="geometry">
            <mxPoint x="1020" y="590" as="sourcePoint" />
            <mxPoint x="1180" y="590" as="targetPoint" />
            <Array as="points">
              <mxPoint x="525" y="550" />
              <mxPoint x="1513" y="550" />
            </Array>
          </mxGeometry>
        </mxCell>
        <mxCell id="rLU7fOl6mltoBrUBpaff-154" value="EngineToBeAdded" style="swimlane;fontStyle=1;align=center;verticalAlign=top;childLayout=stackLayout;horizontal=1;startSize=26;horizontalStack=0;resizeParent=1;resizeParentMax=0;resizeLast=0;collapsible=1;marginBottom=0;whiteSpace=wrap;html=1;fillColor=#f5f5f5;fontColor=#333333;strokeColor=#666666;dashed=1;" vertex="1" parent="1">
          <mxGeometry x="105" y="930" width="160" height="86" as="geometry" />
        </mxCell>
        <mxCell id="rLU7fOl6mltoBrUBpaff-155" value="+ field: ..." style="text;strokeColor=none;fillColor=none;align=left;verticalAlign=top;spacingLeft=4;spacingRight=4;overflow=hidden;rotatable=0;points=[[0,0.5],[1,0.5]];portConstraint=eastwest;whiteSpace=wrap;html=1;" vertex="1" parent="rLU7fOl6mltoBrUBpaff-154">
          <mxGeometry y="26" width="160" height="26" as="geometry" />
        </mxCell>
        <mxCell id="rLU7fOl6mltoBrUBpaff-156" value="" style="line;strokeWidth=1;fillColor=none;align=left;verticalAlign=middle;spacingTop=-1;spacingLeft=3;spacingRight=3;rotatable=0;labelPosition=right;points=[];portConstraint=eastwest;strokeColor=inherit;dashed=1;" vertex="1" parent="rLU7fOl6mltoBrUBpaff-154">
          <mxGeometry y="52" width="160" height="8" as="geometry" />
        </mxCell>
        <mxCell id="rLU7fOl6mltoBrUBpaff-157" value="+ method(type): ..." style="text;strokeColor=none;fillColor=none;align=left;verticalAlign=top;spacingLeft=4;spacingRight=4;overflow=hidden;rotatable=0;points=[[0,0.5],[1,0.5]];portConstraint=eastwest;whiteSpace=wrap;html=1;" vertex="1" parent="rLU7fOl6mltoBrUBpaff-154">
          <mxGeometry y="60" width="160" height="26" as="geometry" />
        </mxCell>
        <mxCell id="rLU7fOl6mltoBrUBpaff-158" value="BatteryToBeAdded" style="swimlane;fontStyle=1;align=center;verticalAlign=top;childLayout=stackLayout;horizontal=1;startSize=26;horizontalStack=0;resizeParent=1;resizeParentMax=0;resizeLast=0;collapsible=1;marginBottom=0;whiteSpace=wrap;html=1;fillColor=#f5f5f5;fontColor=#333333;strokeColor=#666666;dashed=1;" vertex="1" parent="1">
          <mxGeometry x="940" y="930" width="160" height="86" as="geometry" />
        </mxCell>
        <mxCell id="rLU7fOl6mltoBrUBpaff-159" value="+ field: ..." style="text;strokeColor=none;fillColor=none;align=left;verticalAlign=top;spacingLeft=4;spacingRight=4;overflow=hidden;rotatable=0;points=[[0,0.5],[1,0.5]];portConstraint=eastwest;whiteSpace=wrap;html=1;" vertex="1" parent="rLU7fOl6mltoBrUBpaff-158">
          <mxGeometry y="26" width="160" height="26" as="geometry" />
        </mxCell>
        <mxCell id="rLU7fOl6mltoBrUBpaff-160" value="" style="line;strokeWidth=1;fillColor=none;align=left;verticalAlign=middle;spacingTop=-1;spacingLeft=3;spacingRight=3;rotatable=0;labelPosition=right;points=[];portConstraint=eastwest;strokeColor=inherit;dashed=1;" vertex="1" parent="rLU7fOl6mltoBrUBpaff-158">
          <mxGeometry y="52" width="160" height="8" as="geometry" />
        </mxCell>
        <mxCell id="rLU7fOl6mltoBrUBpaff-161" value="+ method(type): ..." style="text;strokeColor=none;fillColor=none;align=left;verticalAlign=top;spacingLeft=4;spacingRight=4;overflow=hidden;rotatable=0;points=[[0,0.5],[1,0.5]];portConstraint=eastwest;whiteSpace=wrap;html=1;" vertex="1" parent="rLU7fOl6mltoBrUBpaff-158">
          <mxGeometry y="60" width="160" height="26" as="geometry" />
        </mxCell>
        <mxCell id="rLU7fOl6mltoBrUBpaff-163" value="add new independently as needed" style="rounded=1;whiteSpace=wrap;html=1;dashed=1;strokeColor=#000000;strokeWidth=1;" vertex="1" parent="1">
          <mxGeometry x="730" y="1010" width="100" height="70" as="geometry" />
        </mxCell>
      </root>
    </mxGraphModel>
  </diagram>
</mxfile>
